mtllib kitkat_box.mtl
usemtl kitkat_box
v -15.61605800 -28.96460700 0.00000000
v -15.61605800 28.96460700 0.00000000
v 15.61605800 28.96460700 0.00000000
v 15.61605800 -28.96460700 0.00000000
v -15.61605800 -28.96460700 18.48017500
v 15.61605800 -28.96460700 18.48017500
v 15.61605800 28.96460700 18.48017500
v -15.61605800 28.96460700 18.48017500
v -15.61605800 -28.96460700 0.00000000
v 15.61605800 -28.96460700 0.00000000
v 15.61605800 -28.96460700 18.48017500
v -15.61605800 -28.96460700 18.48017500
v 15.61605800 -28.96460700 0.00000000
v 15.61605800 28.96460700 0.00000000
v 15.61605800 28.96460700 18.48017500
v 15.61605800 -28.96460700 18.48017500
v 15.61605800 28.96460700 0.00000000
v -15.61605800 28.96460700 0.00000000
v -15.61605800 28.96460700 18.48017500
v 15.61605800 28.96460700 18.48017500
v -15.61605800 28.96460700 0.00000000
v -15.61605800 -28.96460700 0.00000000
v -15.61605800 -28.96460700 18.48017500
v -15.61605800 28.96460700 18.48017500
vn 0.00000000 0.00000000 -1.00000000
vn 0.00000000 0.00000000 -1.00000000
vn 0.00000000 0.00000000 -1.00000000
vn 0.00000000 0.00000000 -1.00000000
vn 0.00000000 0.00000000 1.00000000
vn 0.00000000 0.00000000 1.00000000
vn 0.00000000 0.00000000 1.00000000
vn 0.00000000 0.00000000 1.00000000
vn 0.00000000 -1.00000000 0.00000000
vn 0.00000000 -1.00000000 0.00000000
vn 0.00000000 -1.00000000 0.00000000
vn 0.00000000 -1.00000000 0.00000000
vn 1.00000000 0.00000000 0.00000000
vn 1.00000000 0.00000000 0.00000000
vn 1.00000000 0.00000000 0.00000000
vn 1.00000000 0.00000000 0.00000000
vn 0.00000000 1.00000000 0.00000000
vn 0.00000000 1.00000000 0.00000000
vn 0.00000000 1.00000000 0.00000000
vn 0.00000000 1.00000000 0.00000000
vn -1.00000000 0.00000000 0.00000000
vn -1.00000000 0.00000000 0.00000000
vn -1.00000000 0.00000000 0.00000000
vn -1.00000000 0.00000000 0.00000000
vt 0.98028900 -0.02371600
vt 0.01971100 -0.02371500
vt 0.01971100 1.05371600
vt 0.98028900 1.05371500
vt 0.01971100 -0.02371600
vt 0.01971100 1.05371500
vt 0.98028900 1.05371600
vt 0.98028900 -0.02371500
vt 0.24952800 -0.02371600
vt 0.24952800 1.05371500
vt 0.75047200 1.05371500
vt 0.75047200 -0.02371600
vt 0.75047200 0.98088000
vt 0.75047200 0.04912000
vt 0.24952800 0.04912000
vt 0.24952800 0.98088000
vt 0.75047200 1.05371600
vt 0.75047100 -0.02371500
vt 0.24952800 -0.02371500
vt 0.24952800 1.05371600
vt 0.24952800 0.04912000
vt 0.24952800 0.98088000
vt 0.75047200 0.98088000
vt 0.75047200 0.04912000
f 1/1/1 2/2/2 3/3/3
f 1/1/1 3/3/3 4/4/4
f 5/5/5 6/6/6 7/7/7
f 5/5/5 7/7/7 8/8/8
f 9/9/9 10/10/10 11/11/11
f 9/9/9 11/11/11 12/12/12
f 13/13/13 14/14/14 15/15/15
f 13/13/13 15/15/15 16/16/16
f 17/17/17 18/18/18 19/19/19
f 17/17/17 19/19/19 20/20/20
f 21/21/21 22/22/22 23/23/23
f 21/21/21 23/23/23 24/24/24