mtllib material_0.mtl
usemtl material_0
v 1.88091300 -2.58885400 -1.00000000
v -1.88091300 -2.58885400 -1.00000000
v 3.04338100 0.98885400 -1.00000000
v -3.04338100 0.98885400 -1.00000000
v 0.00000000 3.20000000 -1.00000000
v 1.88091300 -2.58885400 1.00000000
v -1.88091300 -2.58885400 1.00000000
v -3.04338100 0.98885400 1.00000000
v 0.00000000 3.20000000 1.00000000
v 3.04338100 0.98885400 1.00000000
vn 1.49391600 -2.05619900 -1.88495600
vn -1.49391600 -2.05619900 -1.88495600
vn 2.41720700 0.78539800 -1.88495500
vn -2.41720700 0.78539800 -1.88495600
vn 0.00000000 2.54160200 -1.88495600
vn 1.49391600 -2.05619900 1.88495600
vn -1.49391600 -2.05619900 1.88495600
vn -2.41720700 0.78539800 1.88495500
vn 0.00000000 2.54160200 1.88495600
vn 2.41720700 0.78539800 1.88495600
f 1//1 2//2 3//3
f 3//3 2//2 4//4
f 3//3 4//4 5//5
f 6//6 7//7 1//1
f 1//1 7//7 2//2
f 7//7 8//8 2//2
f 2//2 8//8 4//4
f 8//8 9//9 4//4
f 4//4 9//9 5//5
f 9//9 10//10 5//5
f 5//5 10//10 3//3
f 10//10 6//6 3//3
f 3//3 6//6 1//1
f 7//7 6//6 8//8
f 8//8 6//6 10//10
f 8//8 10//10 9//9