v 2.26400000 10.08400000 0.00000000
v 3.27600000 3.11600000 0.00000000
v -9.59000000 6.23200000 0.00000000
v -2.65100000 5.04200000 0.00000000
v -9.59000000 -6.23200000 0.00000000
v -6.31400000 0.00000000 0.00000000
v -9.59000000 6.23200000 20.00000000
v -2.65100000 5.04200000 20.00000000
v 2.26400000 -10.08400000 0.00000000
v -2.65100000 -5.04200000 0.00000000
v -9.59000000 -6.23200000 20.00000000
v -6.31400000 0.00000000 20.00000000
v -2.65100000 -5.04200000 20.00000000
v 9.59000000 0.00000000 0.00000000
v 3.27600000 -3.11600000 0.00000000
v 3.27600000 -3.11600000 20.00000000
v 2.26400000 -10.08400000 20.00000000
v 3.27600000 3.11600000 20.00000000
v 2.26400000 10.08400000 20.00000000
v 9.59000000 0.00000000 20.00000000
vn 0.42969100 1.32223100 -0.91687100
vn 2.24964200 1.63436900 -4.10972300
vn -1.12488700 0.81730100 -0.91697900
vn -0.85928900 2.64465900 -4.10958700
vn -1.12488700 -0.81730100 -0.91697900
vn -2.78078700 0.00000000 -4.10954300
vn -1.12488700 0.81730100 0.91697900
vn -0.85928900 2.64465900 4.10958700
vn 0.42969100 -1.32223100 -0.91687100
vn -0.85928900 -2.64465900 -4.10958700
vn -1.12488700 -0.81730100 0.91697900
vn -2.78078800 0.00000000 4.10954300
vn -0.85928900 -2.64465900 4.10958700
vn 1.39030900 -0.00000000 -0.91687900
vn 2.24964200 -1.63436900 -4.10972300
vn 2.24964200 -1.63436900 4.10972300
vn 0.42969100 -1.32223100 0.91687100
vn 2.24964200 1.63436900 4.10972300
vn 0.42969100 1.32223100 0.91687100
vn 1.39030900 0.00000000 0.91687900
f 17//17 16//16 13//13
f 18//18 12//12 16//16
f 13//13 16//16 12//12
f 8//8 12//12 18//18
f 7//7 12//12 8//8
f 11//11 13//13 12//12
f 1//1 19//19 18//18
f 1//1 18//18 2//2
f 18//18 14//14 2//2
f 1//1 8//8 19//19
f 10//10 13//13 11//11
f 10//10 11//11 5//5
f 4//4 3//3 7//7
f 4//4 7//7 8//8
f 20//20 14//14 18//18
f 6//6 5//5 11//11
f 6//6 11//11 12//12
f 18//18 16//16 20//20
f 20//20 16//16 15//15
f 20//20 15//15 14//14
f 1//1 4//4 8//8
f 15//15 16//16 17//17
f 15//15 17//17 9//9
f 9//9 10//10 15//15
f 10//10 6//6 15//15
f 5//5 6//6 10//10
f 6//6 2//2 15//15
f 3//3 4//4 6//6
f 4//4 2//2 6//6
f 1//1 2//2 4//4
f 14//14 15//15 2//2
f 18//18 19//19 8//8
f 12//12 7//7 6//6
f 3//3 6//6 7//7
f 10//10 9//9 17//17
f 10//10 17//17 13//13